<?xml version="1.0" encoding="UTF-8" standalone="no"?>
<!DOCTYPE svg PUBLIC "-//W3C//DTD SVG 1.1//EN"
 "http://www.w3.org/Graphics/SVG/1.1/DTD/svg11.dtd">
<!-- Generated by graphviz version 2.43.0 (0)
 -->
<!-- Title: GitTree Pages: 1 -->
<svg width="909pt" height="206pt"
 viewBox="0.00 0.00 909.00 206.00" xmlns="http://www.w3.org/2000/svg" xmlns:xlink="http://www.w3.org/1999/xlink">
<g id="graph0" class="graph" transform="scale(1 1) rotate(0) translate(4 202)">
<title>GitTree</title>
<polygon fill="#343541" stroke="transparent" points="-4,4 -4,-202 905,-202 905,4 -4,4"/>
<!-- master_start -->
<g id="node1" class="node">
<title>master_start</title>
<path fill="#aec6cf" stroke="grey" d="M90,-90C90,-90 12,-90 12,-90 6,-90 0,-84 0,-78 0,-78 0,-66 0,-66 0,-60 6,-54 12,-54 12,-54 90,-54 90,-54 96,-54 102,-60 102,-66 102,-66 102,-78 102,-78 102,-84 96,-90 90,-90"/>
<text text-anchor="middle" x="51" y="-68.3" font-family="Helvetica,sans-Serif" font-size="14.00" fill="#343541">Master Start</text>
</g>
<!-- commit1 -->
<g id="node2" class="node">
<title>commit1</title>
<defs>
<linearGradient id="l_0" gradientUnits="userSpaceOnUse" x1="180" y1="-90" x2="180" y2="-54" >
<stop offset="0" style="stop-color:white;stop-opacity:1.;"/>
<stop offset="1" style="stop-color:lightgrey;stop-opacity:1.;"/>
</linearGradient>
</defs>
<path fill="url(#l_0)" stroke="grey" d="M210,-90C210,-90 150,-90 150,-90 144,-90 138,-84 138,-78 138,-78 138,-66 138,-66 138,-60 144,-54 150,-54 150,-54 210,-54 210,-54 216,-54 222,-60 222,-66 222,-66 222,-78 222,-78 222,-84 216,-90 210,-90"/>
<text text-anchor="middle" x="180" y="-68.3" font-family="Helvetica,sans-Serif" font-size="14.00" fill="#343541">Commit 1</text>
</g>
<!-- master_start&#45;&gt;commit1 -->
<g id="edge1" class="edge">
<title>master_start&#45;&gt;commit1</title>
<path fill="none" stroke="#aaaaaa" d="M102.19,-72C110.57,-72 119.28,-72 127.68,-72"/>
<polygon fill="#aaaaaa" stroke="#aaaaaa" points="127.75,-75.5 137.75,-72 127.75,-68.5 127.75,-75.5"/>
</g>
<!-- commit2 -->
<g id="node3" class="node">
<title>commit2</title>
<defs>
<linearGradient id="l_1" gradientUnits="userSpaceOnUse" x1="315.5" y1="-144" x2="315.5" y2="-108" >
<stop offset="0" style="stop-color:white;stop-opacity:1.;"/>
<stop offset="1" style="stop-color:lightgrey;stop-opacity:1.;"/>
</linearGradient>
</defs>
<path fill="url(#l_1)" stroke="grey" d="M345.5,-144C345.5,-144 285.5,-144 285.5,-144 279.5,-144 273.5,-138 273.5,-132 273.5,-132 273.5,-120 273.5,-120 273.5,-114 279.5,-108 285.5,-108 285.5,-108 345.5,-108 345.5,-108 351.5,-108 357.5,-114 357.5,-120 357.5,-120 357.5,-132 357.5,-132 357.5,-138 351.5,-144 345.5,-144"/>
<text text-anchor="middle" x="315.5" y="-122.3" font-family="Helvetica,sans-Serif" font-size="14.00" fill="#343541">Commit 2</text>
</g>
<!-- commit1&#45;&gt;commit2 -->
<g id="edge2" class="edge">
<title>commit1&#45;&gt;commit2</title>
<path fill="none" stroke="#aaaaaa" d="M222.14,-88.64C235.34,-93.98 250.11,-99.95 263.9,-105.53"/>
<polygon fill="#aaaaaa" stroke="#aaaaaa" points="262.68,-108.81 273.26,-109.32 265.3,-102.33 262.68,-108.81"/>
</g>
<!-- maint_v1_start -->
<g id="node5" class="node">
<title>maint_v1_start</title>
<path fill="#f4c2c2" stroke="grey" d="M361,-90C361,-90 270,-90 270,-90 264,-90 258,-84 258,-78 258,-78 258,-66 258,-66 258,-60 264,-54 270,-54 270,-54 361,-54 361,-54 367,-54 373,-60 373,-66 373,-66 373,-78 373,-78 373,-84 367,-90 361,-90"/>
<text text-anchor="middle" x="315.5" y="-68.3" font-family="Helvetica,sans-Serif" font-size="14.00" fill="#343541">Maint&#45;v1 Start</text>
</g>
<!-- commit1&#45;&gt;maint_v1_start -->
<g id="edge4" class="edge">
<title>commit1&#45;&gt;maint_v1_start</title>
<path fill="none" stroke="#aaaaaa" d="M222.14,-72C230.18,-72 238.81,-72 247.44,-72"/>
<polygon fill="#aaaaaa" stroke="#aaaaaa" points="247.54,-75.5 257.54,-72 247.54,-68.5 247.54,-75.5"/>
</g>
<!-- develop_start -->
<g id="node10" class="node">
<title>develop_start</title>
<path fill="#cdb4db" stroke="grey" d="M359,-36C359,-36 272,-36 272,-36 266,-36 260,-30 260,-24 260,-24 260,-12 260,-12 260,-6 266,0 272,0 272,0 359,0 359,0 365,0 371,-6 371,-12 371,-12 371,-24 371,-24 371,-30 365,-36 359,-36"/>
<text text-anchor="middle" x="315.5" y="-14.3" font-family="Helvetica,sans-Serif" font-size="14.00" fill="#343541">Develop Start</text>
</g>
<!-- commit1&#45;&gt;develop_start -->
<g id="edge9" class="edge">
<title>commit1&#45;&gt;develop_start</title>
<path fill="none" stroke="#aaaaaa" d="M222.14,-55.36C234.11,-50.52 247.37,-45.15 260.02,-40.04"/>
<polygon fill="#aaaaaa" stroke="#aaaaaa" points="261.59,-43.18 269.54,-36.18 258.96,-36.69 261.59,-43.18"/>
</g>
<!-- commit3 -->
<g id="node4" class="node">
<title>commit3</title>
<defs>
<linearGradient id="l_2" gradientUnits="userSpaceOnUse" x1="479" y1="-198" x2="479" y2="-162" >
<stop offset="0" style="stop-color:white;stop-opacity:1.;"/>
<stop offset="1" style="stop-color:lightgrey;stop-opacity:1.;"/>
</linearGradient>
</defs>
<path fill="url(#l_2)" stroke="grey" d="M509,-198C509,-198 449,-198 449,-198 443,-198 437,-192 437,-186 437,-186 437,-174 437,-174 437,-168 443,-162 449,-162 449,-162 509,-162 509,-162 515,-162 521,-168 521,-174 521,-174 521,-186 521,-186 521,-192 515,-198 509,-198"/>
<text text-anchor="middle" x="479" y="-176.3" font-family="Helvetica,sans-Serif" font-size="14.00" fill="#343541">Commit 3</text>
</g>
<!-- commit2&#45;&gt;commit3 -->
<g id="edge3" class="edge">
<title>commit2&#45;&gt;commit3</title>
<path fill="none" stroke="#aaaaaa" d="M357.67,-139.77C378.84,-146.84 404.82,-155.53 427.22,-163.02"/>
<polygon fill="#aaaaaa" stroke="#aaaaaa" points="426.31,-166.41 436.9,-166.26 428.53,-159.77 426.31,-166.41"/>
</g>
<!-- maint_v2_start -->
<g id="node8" class="node">
<title>maint_v2_start</title>
<path fill="#fed8b1" stroke="grey" d="M524.5,-144C524.5,-144 433.5,-144 433.5,-144 427.5,-144 421.5,-138 421.5,-132 421.5,-132 421.5,-120 421.5,-120 421.5,-114 427.5,-108 433.5,-108 433.5,-108 524.5,-108 524.5,-108 530.5,-108 536.5,-114 536.5,-120 536.5,-120 536.5,-132 536.5,-132 536.5,-138 530.5,-144 524.5,-144"/>
<text text-anchor="middle" x="479" y="-122.3" font-family="Helvetica,sans-Serif" font-size="14.00" fill="#343541">Maint&#45;v2 Start</text>
</g>
<!-- commit2&#45;&gt;maint_v2_start -->
<g id="edge7" class="edge">
<title>commit2&#45;&gt;maint_v2_start</title>
<path fill="none" stroke="#aaaaaa" d="M357.67,-126C373.92,-126 393,-126 411.13,-126"/>
<polygon fill="#aaaaaa" stroke="#aaaaaa" points="411.37,-129.5 421.37,-126 411.37,-122.5 411.37,-129.5"/>
</g>
<!-- maint_v1_commit1 -->
<g id="node6" class="node">
<title>maint_v1_commit1</title>
<defs>
<linearGradient id="l_3" gradientUnits="userSpaceOnUse" x1="479" y1="-90" x2="479" y2="-54" >
<stop offset="0" style="stop-color:white;stop-opacity:1.;"/>
<stop offset="1" style="stop-color:lightgrey;stop-opacity:1.;"/>
</linearGradient>
</defs>
<path fill="url(#l_3)" stroke="grey" d="M520,-90C520,-90 438,-90 438,-90 432,-90 426,-84 426,-78 426,-78 426,-66 426,-66 426,-60 432,-54 438,-54 438,-54 520,-54 520,-54 526,-54 532,-60 532,-66 532,-66 532,-78 532,-78 532,-84 526,-90 520,-90"/>
<text text-anchor="middle" x="479" y="-68.3" font-family="Helvetica,sans-Serif" font-size="14.00" fill="#343541">Commit v1.1</text>
</g>
<!-- maint_v1_start&#45;&gt;maint_v1_commit1 -->
<g id="edge5" class="edge">
<title>maint_v1_start&#45;&gt;maint_v1_commit1</title>
<path fill="none" stroke="#aaaaaa" d="M373.44,-72C387.18,-72 401.93,-72 415.89,-72"/>
<polygon fill="#aaaaaa" stroke="#aaaaaa" points="415.89,-75.5 425.89,-72 415.89,-68.5 415.89,-75.5"/>
</g>
<!-- maint_v1_commit2 -->
<g id="node7" class="node">
<title>maint_v1_commit2</title>
<defs>
<linearGradient id="l_4" gradientUnits="userSpaceOnUse" x1="655" y1="-90" x2="655" y2="-54" >
<stop offset="0" style="stop-color:white;stop-opacity:1.;"/>
<stop offset="1" style="stop-color:lightgrey;stop-opacity:1.;"/>
</linearGradient>
</defs>
<path fill="url(#l_4)" stroke="grey" d="M696,-90C696,-90 614,-90 614,-90 608,-90 602,-84 602,-78 602,-78 602,-66 602,-66 602,-60 608,-54 614,-54 614,-54 696,-54 696,-54 702,-54 708,-60 708,-66 708,-66 708,-78 708,-78 708,-84 702,-90 696,-90"/>
<text text-anchor="middle" x="655" y="-68.3" font-family="Helvetica,sans-Serif" font-size="14.00" fill="#343541">Commit v1.2</text>
</g>
<!-- maint_v1_commit1&#45;&gt;maint_v1_commit2 -->
<g id="edge6" class="edge">
<title>maint_v1_commit1&#45;&gt;maint_v1_commit2</title>
<path fill="none" stroke="#aaaaaa" d="M532.21,-72C550.96,-72 572.3,-72 591.81,-72"/>
<polygon fill="#aaaaaa" stroke="#aaaaaa" points="591.83,-75.5 601.83,-72 591.83,-68.5 591.83,-75.5"/>
</g>
<!-- maint_v2_commit1 -->
<g id="node9" class="node">
<title>maint_v2_commit1</title>
<defs>
<linearGradient id="l_5" gradientUnits="userSpaceOnUse" x1="655" y1="-144" x2="655" y2="-108" >
<stop offset="0" style="stop-color:white;stop-opacity:1.;"/>
<stop offset="1" style="stop-color:lightgrey;stop-opacity:1.;"/>
</linearGradient>
</defs>
<path fill="url(#l_5)" stroke="grey" d="M696,-144C696,-144 614,-144 614,-144 608,-144 602,-138 602,-132 602,-132 602,-120 602,-120 602,-114 608,-108 614,-108 614,-108 696,-108 696,-108 702,-108 708,-114 708,-120 708,-120 708,-132 708,-132 708,-138 702,-144 696,-144"/>
<text text-anchor="middle" x="655" y="-122.3" font-family="Helvetica,sans-Serif" font-size="14.00" fill="#343541">Commit v2.1</text>
</g>
<!-- maint_v2_start&#45;&gt;maint_v2_commit1 -->
<g id="edge8" class="edge">
<title>maint_v2_start&#45;&gt;maint_v2_commit1</title>
<path fill="none" stroke="#aaaaaa" d="M536.97,-126C554.54,-126 573.96,-126 591.86,-126"/>
<polygon fill="#aaaaaa" stroke="#aaaaaa" points="591.9,-129.5 601.9,-126 591.9,-122.5 591.9,-129.5"/>
</g>
<!-- develop_commit1 -->
<g id="node11" class="node">
<title>develop_commit1</title>
<defs>
<linearGradient id="l_6" gradientUnits="userSpaceOnUse" x1="479" y1="-36" x2="479" y2="0" >
<stop offset="0" style="stop-color:white;stop-opacity:1.;"/>
<stop offset="1" style="stop-color:lightgrey;stop-opacity:1.;"/>
</linearGradient>
</defs>
<path fill="url(#l_6)" stroke="grey" d="M537,-36C537,-36 421,-36 421,-36 415,-36 409,-30 409,-24 409,-24 409,-12 409,-12 409,-6 415,0 421,0 421,0 537,0 537,0 543,0 549,-6 549,-12 549,-12 549,-24 549,-24 549,-30 543,-36 537,-36"/>
<text text-anchor="middle" x="479" y="-14.3" font-family="Helvetica,sans-Serif" font-size="14.00" fill="#343541">Feature Commit 1</text>
</g>
<!-- develop_start&#45;&gt;develop_commit1 -->
<g id="edge10" class="edge">
<title>develop_start&#45;&gt;develop_commit1</title>
<path fill="none" stroke="#aaaaaa" d="M371.18,-18C380.05,-18 389.39,-18 398.7,-18"/>
<polygon fill="#aaaaaa" stroke="#aaaaaa" points="398.78,-21.5 408.78,-18 398.78,-14.5 398.78,-21.5"/>
</g>
<!-- develop_commit2 -->
<g id="node12" class="node">
<title>develop_commit2</title>
<defs>
<linearGradient id="l_7" gradientUnits="userSpaceOnUse" x1="655" y1="-36" x2="655" y2="0" >
<stop offset="0" style="stop-color:white;stop-opacity:1.;"/>
<stop offset="1" style="stop-color:lightgrey;stop-opacity:1.;"/>
</linearGradient>
</defs>
<path fill="url(#l_7)" stroke="grey" d="M713,-36C713,-36 597,-36 597,-36 591,-36 585,-30 585,-24 585,-24 585,-12 585,-12 585,-6 591,0 597,0 597,0 713,0 713,0 719,0 725,-6 725,-12 725,-12 725,-24 725,-24 725,-30 719,-36 713,-36"/>
<text text-anchor="middle" x="655" y="-14.3" font-family="Helvetica,sans-Serif" font-size="14.00" fill="#343541">Feature Commit 2</text>
</g>
<!-- develop_commit1&#45;&gt;develop_commit2 -->
<g id="edge11" class="edge">
<title>develop_commit1&#45;&gt;develop_commit2</title>
<path fill="none" stroke="#aaaaaa" d="M549.02,-18C557.48,-18 566.17,-18 574.76,-18"/>
<polygon fill="#aaaaaa" stroke="#aaaaaa" points="574.78,-21.5 584.78,-18 574.78,-14.5 574.78,-21.5"/>
</g>
<!-- develop_commit3 -->
<g id="node13" class="node">
<title>develop_commit3</title>
<defs>
<linearGradient id="l_8" gradientUnits="userSpaceOnUse" x1="831" y1="-36" x2="831" y2="0" >
<stop offset="0" style="stop-color:white;stop-opacity:1.;"/>
<stop offset="1" style="stop-color:lightgrey;stop-opacity:1.;"/>
</linearGradient>
</defs>
<path fill="url(#l_8)" stroke="grey" d="M889,-36C889,-36 773,-36 773,-36 767,-36 761,-30 761,-24 761,-24 761,-12 761,-12 761,-6 767,0 773,0 773,0 889,0 889,0 895,0 901,-6 901,-12 901,-12 901,-24 901,-24 901,-30 895,-36 889,-36"/>
<text text-anchor="middle" x="831" y="-14.3" font-family="Helvetica,sans-Serif" font-size="14.00" fill="#343541">Feature Commit 3</text>
</g>
<!-- develop_commit2&#45;&gt;develop_commit3 -->
<g id="edge12" class="edge">
<title>develop_commit2&#45;&gt;develop_commit3</title>
<path fill="none" stroke="#aaaaaa" d="M725.02,-18C733.48,-18 742.17,-18 750.76,-18"/>
<polygon fill="#aaaaaa" stroke="#aaaaaa" points="750.78,-21.5 760.78,-18 750.78,-14.5 750.78,-21.5"/>
</g>
</g>
</svg>
